<?xml version="1.0" encoding="utf-8"?>
<!-- Generator: Adobe Illustrator 25.1.0, SVG Export Plug-In . SVG Version: 6.00 Build 0)  -->
<svg version="1.1" xmlns="http://www.w3.org/2000/svg" xmlns:xlink="http://www.w3.org/1999/xlink" x="0px" y="0px"
	 viewBox="200 0 1170 780" style="enable-background:new 0 0 1170 780;" xml:space="preserve">
<style type="text/css">
	.st0{fill:none;}
	.st1{fill:#F15A29;}
	.st2{font-family:'Calibri-Bold';}
	.st3{font-size:90px;}
	.st4{fill:#F7941E;}
	.st5{font-family:'JustAnotherHand-Regular';}
	.st6{font-size:60px;}
	.st7{fill-rule:evenodd;clip-rule:evenodd;fill:#F5D630;}
	.st8{fill-rule:evenodd;clip-rule:evenodd;}
</style>
<g id="LAYER_01">
</g>
<g id="background">
</g>
<g id="company_name">
	<rect x="566.88" y="335.86" class="st0" width="424.88" height="74"/>
	<text transform="matrix(1 0 0 1 566.8826 396.8806)" class="st1 st2 st3">Bon’App</text>
	<rect x="566.88" y="409.86" class="st0" width="549.48" height="74"/>
	<text transform="matrix(1 0 0 1 566.8826 449.3395)" class="st4 st5 st6">générateur de bien manger</text>
</g>
<g id="tagline_is_here">
</g>
<g id="LOGO">
	<g>
		<path class="st7" d="M434.24,328.89c35.7,0,64.63,28.94,64.63,64.63c0,35.7-28.94,64.63-64.63,64.63
			c-35.7,0-64.63-28.94-64.63-64.63C369.61,357.82,398.54,328.89,434.24,328.89L434.24,328.89z"/>
		<path class="st8" d="M396.77,368.55c-4.06,6.28-6.44,13.63-6.44,21.46c0,21.68,8.07,34.77,13.89,44.21
			c3.29,5.34,5.95,9.65,6.6,14.18c1.01,7.08,1.24,12.2,1.27,15.1c5.44,2.7,21.17,9.23,44.12,8.02c2.32-0.12,4.29,1.67,4.41,3.98
			c0.12,2.32-1.66,4.29-3.98,4.41c-28.92,1.52-47.85-8.57-50.59-10.13c-1.52-0.72-2.52-2.31-2.4-4.09c0-0.02,0.37-5.49-1.15-16.11
			c-0.4-2.83-2.64-6.46-5.41-10.95c-6.36-10.31-15.17-24.61-15.17-48.62c0-9.5,2.88-18.4,7.79-26.01
			c4.71-7.28,11.28-13.37,18.97-17.63c7.71-4.27,16.52-6.72,25.69-6.72c9.69,0,19.77,2.72,29.33,8.9c1.23,0.79,2.45,1.65,3.68,2.57
			c15.41,11.55,20.57,26.62,20.5,40.92c-0.07,14.03-5.25,27.29-10.64,35.64l-0.01-0.01l0,0.01c-0.67,1.03-1.3,1.95-1.9,2.75
			c-8.77,11.7-10.02,23.57-10.19,26.72l0,0.01c0.41,2.34-1.16,4.57-3.5,4.98c-0.09,0.02-31.55,5.8-32.06-24.84
			c-0.08-4.87-0.12-9.96-0.14-15.01c-16.1-3.75-16.1-20.4-16.1-27.29h-0.02v-0.1v-14.77c0-2.38,1.93-4.31,4.31-4.31
			c2.38,0,4.31,1.93,4.31,4.31v14.77v0.1h-0.02c0,4.44,0,14.63,7.52,18.16c0.04-17.86,0.35-33.04,0.35-33.11
			c0.05-2.37,2.01-4.25,4.37-4.21c2.37,0.04,4.25,2,4.21,4.38c0,0.06-0.3,14.93-0.35,32.5c6.67-3.87,6.68-13.45,6.68-17.72h-0.02
			v-0.1v-14.77c0-2.38,1.93-4.31,4.31-4.31c2.38,0,4.31,1.93,4.31,4.31v14.77v0.1h-0.02c0,6.78,0,22.96-15.26,27.08
			c0.02,5.07,0.06,10.18,0.14,15.08c0.26,15.63,12.9,17.01,18.9,16.79l-0.03-0.05c0.74-5.88,3.23-17.38,11.58-28.51
			c0.55-0.74,1.08-1.49,1.57-2.25l-0.01-0.01c4.73-7.31,9.27-18.91,9.33-31.13c0.06-11.94-4.26-24.51-17.15-34.17
			c-0.95-0.72-2.01-1.45-3.19-2.21c-8.11-5.24-16.63-7.55-24.79-7.55c-7.73,0-15.14,2.06-21.61,5.64
			C406.26,357.31,400.72,362.43,396.77,368.55L396.77,368.55z"/>
		<path class="st8" d="M416.37,482.37c0,0.02-2.17,6.47,36.68,5.78c2.32-0.04,4.22,1.81,4.26,4.13c0.04,2.32-1.81,4.23-4.13,4.26
			c-50.14,0.89-44.95-16.29-44.94-16.34c0.6-2.25,2.91-3.58,5.15-2.98C415.64,477.82,416.97,480.12,416.37,482.37L416.37,482.37z"/>
		<path class="st8" d="M414.67,499.52c0.62-2.24,2.93-3.55,5.17-2.93c2.23,0.62,3.55,2.93,2.93,5.17c0,0.01-0.98,2.7,23.85,2.27
			c2.32-0.04,4.23,1.81,4.26,4.13c0.04,2.32-1.81,4.22-4.13,4.26C410.6,513.06,414.66,499.56,414.67,499.52L414.67,499.52z"/>
		<path d="M438.55,315.14c0,2.38-1.93,4.31-4.31,4.31c-2.38,0-4.31-1.93-4.31-4.31v-24.12c0-2.38,1.93-4.31,4.31-4.31
			c2.38,0,4.31,1.93,4.31,4.31V315.14L438.55,315.14z M486.62,451.99c-1.68-1.68-1.68-4.41,0-6.09c1.68-1.68,4.41-1.68,6.09,0
			l17.05,17.05c1.68,1.68,1.68,4.41,0,6.09c-1.68,1.68-4.41,1.68-6.09,0L486.62,451.99L486.62,451.99z M375.77,445.9
			c1.68-1.68,4.41-1.68,6.09,0c1.68,1.68,1.68,4.41,0,6.09l-17.05,17.05c-1.68,1.68-4.41,1.68-6.09,0c-1.68-1.68-1.68-4.41,0-6.09
			L375.77,445.9L375.77,445.9z M512.62,397.83c-2.38,0-4.31-1.93-4.31-4.31c0-2.38,1.93-4.31,4.31-4.31h24.12
			c2.38,0,4.31,1.93,4.31,4.31c0,2.38-1.93,4.31-4.31,4.31H512.62L512.62,397.83z M355.86,389.21c2.38,0,4.31,1.93,4.31,4.31
			c0,2.38-1.93,4.31-4.31,4.31h-24.12c-2.38,0-4.31-1.93-4.31-4.31c0-2.38,1.93-4.31,4.31-4.31H355.86L355.86,389.21z
			 M492.71,341.14c-1.68,1.68-4.41,1.68-6.09,0c-1.68-1.68-1.68-4.41,0-6.09L503.67,318c1.68-1.68,4.41-1.68,6.09,0
			c1.68,1.68,1.68,4.41,0,6.09L492.71,341.14L492.71,341.14z M381.86,335.05c1.68,1.68,1.68,4.41,0,6.09
			c-1.68,1.68-4.41,1.68-6.09,0l-17.05-17.05c-1.68-1.68-1.68-4.41,0-6.09c1.68-1.68,4.41-1.68,6.09,0L381.86,335.05L381.86,335.05z
			"/>
	</g>
</g>
</svg>
